<svg xmlns="http://www.w3.org/2000/svg" viewBox="0 0 1500 500" width="1500" height="500">
  <defs>
    <linearGradient id="bg" x1="0" y1="0" x2="1" y2="1">
      <stop offset="0%" stop-color="#11111b"/>
      <stop offset="50%" stop-color="#181825"/>
      <stop offset="100%" stop-color="#11111b"/>
    </linearGradient>
    <radialGradient id="glow" cx="0.5" cy="0.5" r="0.5">
      <stop offset="0%" stop-color="#89b4fa" stop-opacity="0.06"/>
      <stop offset="100%" stop-color="#89b4fa" stop-opacity="0"/>
    </radialGradient>
  </defs>

  <rect width="1500" height="500" fill="url(#bg)"/>

  <g fill="none" stroke-linecap="round" stroke-linejoin="round">
    <script/>
    <!-- Isometric honeycomb grid
         Hex size: 60px wide, ~52px tall (flat-top orientation tilted to isometric)
         Columns spaced 90px apart, rows 52px apart, odd columns offset 26px down
         Isometric: squash vertical by 0.577 factor for 30-degree view -->

    <!-- Generate honeycomb pattern procedurally using repeated hex paths -->
    <!-- Each hex: flat-top, width=60, drawn at 30deg isometric tilt -->
    <!-- Hex pointy-side-up in isometric:
         top: 0,-30  tr: 26,-15  br: 26,15  bottom: 0,30  bl: -26,15  tl: -26,-15 -->

    <!-- Row 0: y_center = -10 -->
    <polygon points="30,-40 56,-25 56,5 30,20 4,5 4,-25" stroke="#313244" stroke-width="0.4" opacity="0.15"/>
    <polygon points="120,-40 146,-25 146,5 120,20 94,5 94,-25" stroke="#313244" stroke-width="0.4" opacity="0.18"/>
    <polygon points="210,-40 236,-25 236,5 210,20 184,5 184,-25" stroke="#313244" stroke-width="0.4" opacity="0.2"/>
    <polygon points="300,-40 326,-25 326,5 300,20 274,5 274,-25" stroke="#313244" stroke-width="0.5" opacity="0.22"/>
    <polygon points="390,-40 416,-25 416,5 390,20 364,5 364,-25" stroke="#313244" stroke-width="0.5" opacity="0.24"/>
    <polygon points="480,-40 506,-25 506,5 480,20 454,5 454,-25" stroke="#313244" stroke-width="0.5" opacity="0.26"/>
    <polygon points="570,-40 596,-25 596,5 570,20 544,5 544,-25" stroke="#313244" stroke-width="0.5" opacity="0.28"/>
    <polygon points="660,-40 686,-25 686,5 660,20 634,5 634,-25" stroke="#313244" stroke-width="0.6" opacity="0.3"/>
    <polygon points="750,-40 776,-25 776,5 750,20 724,5 724,-25" stroke="#313244" stroke-width="0.6" opacity="0.32"/>
    <polygon points="840,-40 866,-25 866,5 840,20 814,5 814,-25" stroke="#313244" stroke-width="0.6" opacity="0.3"/>
    <polygon points="930,-40 956,-25 956,5 930,20 904,5 904,-25" stroke="#313244" stroke-width="0.5" opacity="0.28"/>
    <polygon points="1020,-40 1046,-25 1046,5 1020,20 994,5 994,-25" stroke="#313244" stroke-width="0.5" opacity="0.26"/>
    <polygon points="1110,-40 1136,-25 1136,5 1110,20 1084,5 1084,-25" stroke="#313244" stroke-width="0.5" opacity="0.24"/>
    <polygon points="1200,-40 1226,-25 1226,5 1200,20 1174,5 1174,-25" stroke="#313244" stroke-width="0.5" opacity="0.22"/>
    <polygon points="1290,-40 1316,-25 1316,5 1290,20 1264,5 1264,-25" stroke="#313244" stroke-width="0.4" opacity="0.2"/>
    <polygon points="1380,-40 1406,-25 1406,5 1380,20 1354,5 1354,-25" stroke="#313244" stroke-width="0.4" opacity="0.18"/>
    <polygon points="1470,-40 1496,-25 1496,5 1470,20 1444,5 1444,-25" stroke="#313244" stroke-width="0.4" opacity="0.15"/>

    <!-- Row 0.5 (offset): y_center = 20 -->
    <polygon points="75,-10 101,5 101,35 75,50 49,35 49,5" stroke="#313244" stroke-width="0.4" opacity="0.18"/>
    <polygon points="165,-10 191,5 191,35 165,50 139,35 139,5" stroke="#313244" stroke-width="0.5" opacity="0.22"/>
    <polygon points="255,-10 281,5 281,35 255,50 229,35 229,5" stroke="#313244" stroke-width="0.5" opacity="0.25"/>
    <polygon points="345,-10 371,5 371,35 345,50 319,35 319,5" stroke="#313244" stroke-width="0.5" opacity="0.28"/>
    <polygon points="435,-10 461,5 461,35 435,50 409,35 409,5" stroke="#313244" stroke-width="0.6" opacity="0.3"/>
    <polygon points="525,-10 551,5 551,35 525,50 499,35 499,5" stroke="#313244" stroke-width="0.6" opacity="0.32"/>
    <polygon points="615,-10 641,5 641,35 615,50 589,35 589,5" stroke="#313244" stroke-width="0.6" opacity="0.35"/>
    <polygon points="705,-10 731,5 731,35 705,50 679,35 679,5" stroke="#313244" stroke-width="0.7" opacity="0.38"/>
    <polygon points="795,-10 821,5 821,35 795,50 769,35 769,5" stroke="#313244" stroke-width="0.7" opacity="0.38"/>
    <polygon points="885,-10 911,5 911,35 885,50 859,35 859,5" stroke="#313244" stroke-width="0.6" opacity="0.35"/>
    <polygon points="975,-10 1001,5 1001,35 975,50 949,35 949,5" stroke="#313244" stroke-width="0.6" opacity="0.32"/>
    <polygon points="1065,-10 1091,5 1091,35 1065,50 1039,35 1039,5" stroke="#313244" stroke-width="0.6" opacity="0.3"/>
    <polygon points="1155,-10 1181,5 1181,35 1155,50 1129,35 1129,5" stroke="#313244" stroke-width="0.5" opacity="0.28"/>
    <polygon points="1245,-10 1271,5 1271,35 1245,50 1219,35 1219,5" stroke="#313244" stroke-width="0.5" opacity="0.25"/>
    <polygon points="1335,-10 1361,5 1361,35 1335,50 1309,35 1309,5" stroke="#313244" stroke-width="0.5" opacity="0.22"/>
    <polygon points="1425,-10 1451,5 1451,35 1425,50 1399,35 1399,5" stroke="#313244" stroke-width="0.4" opacity="0.18"/>

    <!-- Row 1: y_center = 50 -->
    <polygon points="30,20 56,35 56,65 30,80 4,65 4,35" stroke="#313244" stroke-width="0.5" opacity="0.22"/>
    <polygon points="120,20 146,35 146,65 120,80 94,65 94,35" stroke="#313244" stroke-width="0.5" opacity="0.26"/>
    <polygon points="210,20 236,35 236,65 210,80 184,65 184,35" stroke="#313244" stroke-width="0.6" opacity="0.3"/>
    <polygon points="300,20 326,35 326,65 300,80 274,65 274,35" stroke="#313244" stroke-width="0.6" opacity="0.34"/>
    <polygon points="390,20 416,35 416,65 390,80 364,65 364,35" stroke="#313244" stroke-width="0.7" opacity="0.38"/>
    <polygon points="480,20 506,35 506,65 480,80 454,65 454,35" stroke="#313244" stroke-width="0.7" opacity="0.4"/>
    <polygon points="570,20 596,35 596,65 570,80 544,65 544,35" stroke="#313244" stroke-width="0.8" opacity="0.44"/>
    <polygon points="660,20 686,35 686,65 660,80 634,65 634,35" stroke="#313244" stroke-width="0.8" opacity="0.48"/>
    <polygon points="750,20 776,35 776,65 750,80 724,65 724,35" stroke="#45475a" stroke-width="0.9" opacity="0.5"/>
    <polygon points="840,20 866,35 866,65 840,80 814,65 814,35" stroke="#313244" stroke-width="0.8" opacity="0.48"/>
    <polygon points="930,20 956,35 956,65 930,80 904,65 904,35" stroke="#313244" stroke-width="0.8" opacity="0.44"/>
    <polygon points="1020,20 1046,35 1046,65 1020,80 994,65 994,35" stroke="#313244" stroke-width="0.7" opacity="0.4"/>
    <polygon points="1110,20 1136,35 1136,65 1110,80 1084,65 1084,35" stroke="#313244" stroke-width="0.7" opacity="0.38"/>
    <polygon points="1200,20 1226,35 1226,65 1200,80 1174,65 1174,35" stroke="#313244" stroke-width="0.6" opacity="0.34"/>
    <polygon points="1290,20 1316,35 1316,65 1290,80 1264,65 1264,35" stroke="#313244" stroke-width="0.6" opacity="0.3"/>
    <polygon points="1380,20 1406,35 1406,65 1380,80 1354,65 1354,35" stroke="#313244" stroke-width="0.5" opacity="0.26"/>
    <polygon points="1470,20 1496,35 1496,65 1470,80 1444,65 1444,35" stroke="#313244" stroke-width="0.5" opacity="0.22"/>

    <!-- Row 1.5 (offset): y_center = 80 -->
    <polygon points="75,50 101,65 101,95 75,110 49,95 49,65" stroke="#313244" stroke-width="0.5" opacity="0.28"/>
    <polygon points="165,50 191,65 191,95 165,110 139,95 139,65" stroke="#313244" stroke-width="0.6" opacity="0.32"/>
    <polygon points="255,50 281,65 281,95 255,110 229,95 229,65" stroke="#313244" stroke-width="0.7" opacity="0.38"/>
    <polygon points="345,50 371,65 371,95 345,110 319,95 319,65" stroke="#313244" stroke-width="0.7" opacity="0.42"/>
    <polygon points="435,50 461,65 461,95 435,110 409,95 409,65" stroke="#313244" stroke-width="0.8" opacity="0.46"/>
    <polygon points="525,50 551,65 551,95 525,110 499,95 499,65" stroke="#313244" stroke-width="0.8" opacity="0.5"/>
    <polygon points="615,50 641,65 641,95 615,110 589,95 589,65" stroke="#45475a" stroke-width="0.9" opacity="0.55"/>
    <polygon points="705,50 731,65 731,95 705,110 679,95 679,65" stroke="#45475a" stroke-width="1" opacity="0.6"/>
    <polygon points="795,50 821,65 821,95 795,110 769,95 769,65" stroke="#45475a" stroke-width="1" opacity="0.6"/>
    <polygon points="885,50 911,65 911,95 885,110 859,95 859,65" stroke="#45475a" stroke-width="0.9" opacity="0.55"/>
    <polygon points="975,50 1001,65 1001,95 975,110 949,95 949,65" stroke="#313244" stroke-width="0.8" opacity="0.5"/>
    <polygon points="1065,50 1091,65 1091,95 1065,110 1039,95 1039,65" stroke="#313244" stroke-width="0.8" opacity="0.46"/>
    <polygon points="1155,50 1181,65 1181,95 1155,110 1129,95 1129,65" stroke="#313244" stroke-width="0.7" opacity="0.42"/>
    <polygon points="1245,50 1271,65 1271,95 1245,110 1219,95 1219,65" stroke="#313244" stroke-width="0.7" opacity="0.38"/>
    <polygon points="1335,50 1361,65 1361,95 1335,110 1309,95 1309,65" stroke="#313244" stroke-width="0.6" opacity="0.32"/>
    <polygon points="1425,50 1451,65 1451,95 1425,110 1399,95 1399,65" stroke="#313244" stroke-width="0.5" opacity="0.28"/>

    <!-- Rows 2-8 follow same pattern, continuing down -->
    <!-- Row 2: y_center = 110 -->
    <polygon points="30,80 56,95 56,125 30,140 4,125 4,95" stroke="#313244" stroke-width="0.6" opacity="0.32"/>
    <polygon points="120,80 146,95 146,125 120,140 94,125 94,95" stroke="#313244" stroke-width="0.7" opacity="0.38"/>
    <polygon points="210,80 236,95 236,125 210,140 184,125 184,95" stroke="#313244" stroke-width="0.8" opacity="0.44"/>
    <polygon points="300,80 326,95 326,125 300,140 274,125 274,95" stroke="#313244" stroke-width="0.8" opacity="0.48"/>
    <polygon points="390,80 416,95 416,125 390,140 364,125 364,95" stroke="#45475a" stroke-width="0.9" opacity="0.52"/>
    <polygon points="480,80 506,95 506,125 480,140 454,125 454,95" stroke="#45475a" stroke-width="1" opacity="0.58"/>
    <polygon points="570,80 596,95 596,125 570,140 544,125 544,95" stroke="#45475a" stroke-width="1" opacity="0.62"/>
    <polygon points="660,80 686,95 686,125 660,140 634,125 634,95" stroke="#45475a" stroke-width="1.1" opacity="0.68"/>
    <polygon points="750,80 776,95 776,125 750,140 724,125 724,95" stroke="#585b70" stroke-width="1.2" opacity="0.72"/>
    <polygon points="840,80 866,95 866,125 840,140 814,125 814,95" stroke="#45475a" stroke-width="1.1" opacity="0.68"/>
    <polygon points="930,80 956,95 956,125 930,140 904,125 904,95" stroke="#45475a" stroke-width="1" opacity="0.62"/>
    <polygon points="1020,80 1046,95 1046,125 1020,140 994,125 994,95" stroke="#45475a" stroke-width="1" opacity="0.58"/>
    <polygon points="1110,80 1136,95 1136,125 1110,140 1084,125 1084,95" stroke="#45475a" stroke-width="0.9" opacity="0.52"/>
    <polygon points="1200,80 1226,95 1226,125 1200,140 1174,125 1174,95" stroke="#313244" stroke-width="0.8" opacity="0.48"/>
    <polygon points="1290,80 1316,95 1316,125 1290,140 1264,125 1264,95" stroke="#313244" stroke-width="0.8" opacity="0.44"/>
    <polygon points="1380,80 1406,95 1406,125 1380,140 1354,125 1354,95" stroke="#313244" stroke-width="0.7" opacity="0.38"/>
    <polygon points="1470,80 1496,95 1496,125 1470,140 1444,125 1444,95" stroke="#313244" stroke-width="0.6" opacity="0.32"/>

    <!-- Row 2.5: y_center = 140 -->
    <polygon points="75,110 101,125 101,155 75,170 49,155 49,125" stroke="#313244" stroke-width="0.7" opacity="0.4"/>
    <polygon points="165,110 191,125 191,155 165,170 139,155 139,125" stroke="#313244" stroke-width="0.8" opacity="0.46"/>
    <polygon points="255,110 281,125 281,155 255,170 229,155 229,125" stroke="#45475a" stroke-width="0.9" opacity="0.52"/>
    <polygon points="345,110 371,125 371,155 345,170 319,155 319,125" stroke="#45475a" stroke-width="1" opacity="0.58"/>
    <polygon points="435,110 461,125 461,155 435,170 409,155 409,125" stroke="#45475a" stroke-width="1.1" opacity="0.62"/>
    <polygon points="525,110 551,125 551,155 525,170 499,155 499,125" stroke="#45475a" stroke-width="1.1" opacity="0.68"/>
    <polygon points="615,110 641,125 641,155 615,170 589,155 589,125" stroke="#585b70" stroke-width="1.2" opacity="0.72"/>
    <polygon points="705,110 731,125 731,155 705,170 679,155 679,125" stroke="#585b70" stroke-width="1.3" opacity="0.78"/>
    <polygon points="795,110 821,125 821,155 795,170 769,155 769,125" stroke="#585b70" stroke-width="1.3" opacity="0.78"/>
    <polygon points="885,110 911,125 911,155 885,170 859,155 859,125" stroke="#585b70" stroke-width="1.2" opacity="0.72"/>
    <polygon points="975,110 1001,125 1001,155 975,170 949,155 949,125" stroke="#45475a" stroke-width="1.1" opacity="0.68"/>
    <polygon points="1065,110 1091,125 1091,155 1065,170 1039,155 1039,125" stroke="#45475a" stroke-width="1.1" opacity="0.62"/>
    <polygon points="1155,110 1181,125 1181,155 1155,170 1129,155 1129,125" stroke="#45475a" stroke-width="1" opacity="0.58"/>
    <polygon points="1245,110 1271,125 1271,155 1245,170 1219,155 1219,125" stroke="#45475a" stroke-width="0.9" opacity="0.52"/>
    <polygon points="1335,110 1361,125 1361,155 1335,170 1309,155 1309,125" stroke="#313244" stroke-width="0.8" opacity="0.46"/>
    <polygon points="1425,110 1451,125 1451,155 1425,170 1399,155 1399,125" stroke="#313244" stroke-width="0.7" opacity="0.4"/>

    <!-- Row 3: y_center = 170 -->
    <polygon points="30,140 56,155 56,185 30,200 4,185 4,155" stroke="#313244" stroke-width="0.8" opacity="0.46"/>
    <polygon points="120,140 146,155 146,185 120,200 94,185 94,155" stroke="#45475a" stroke-width="0.9" opacity="0.52"/>
    <polygon points="210,140 236,155 236,185 210,200 184,185 184,155" stroke="#45475a" stroke-width="1" opacity="0.58"/>
    <polygon points="300,140 326,155 326,185 300,200 274,185 274,155" stroke="#45475a" stroke-width="1.1" opacity="0.64"/>
    <polygon points="390,140 416,155 416,185 390,200 364,185 364,155" stroke="#585b70" stroke-width="1.2" opacity="0.7"/>
    <polygon points="480,140 506,155 506,185 480,200 454,185 454,155" stroke="#585b70" stroke-width="1.2" opacity="0.74"/>
    <polygon points="570,140 596,155 596,185 570,200 544,185 544,155" stroke="#585b70" stroke-width="1.3" opacity="0.8"/>
    <polygon points="660,140 686,155 686,185 660,200 634,185 634,155" stroke="#6c7086" stroke-width="1.4" opacity="0.85" fill="#89b4fa" fill-opacity="0.02"/>
    <polygon points="750,140 776,155 776,185 750,200 724,185 724,155" stroke="#6c7086" stroke-width="1.5" opacity="0.9" fill="#89b4fa" fill-opacity="0.03"/>
    <polygon points="840,140 866,155 866,185 840,200 814,185 814,155" stroke="#6c7086" stroke-width="1.4" opacity="0.85" fill="#89b4fa" fill-opacity="0.02"/>
    <polygon points="930,140 956,155 956,185 930,200 904,185 904,155" stroke="#585b70" stroke-width="1.3" opacity="0.8"/>
    <polygon points="1020,140 1046,155 1046,185 1020,200 994,185 994,155" stroke="#585b70" stroke-width="1.2" opacity="0.74"/>
    <polygon points="1110,140 1136,155 1136,185 1110,200 1084,185 1084,155" stroke="#585b70" stroke-width="1.2" opacity="0.7"/>
    <polygon points="1200,140 1226,155 1226,185 1200,200 1174,185 1174,155" stroke="#45475a" stroke-width="1.1" opacity="0.64"/>
    <polygon points="1290,140 1316,155 1316,185 1290,200 1264,185 1264,155" stroke="#45475a" stroke-width="1" opacity="0.58"/>
    <polygon points="1380,140 1406,155 1406,185 1380,200 1354,185 1354,155" stroke="#45475a" stroke-width="0.9" opacity="0.52"/>
    <polygon points="1470,140 1496,155 1496,185 1470,200 1444,185 1444,155" stroke="#313244" stroke-width="0.8" opacity="0.46"/>

    <!-- Row 3.5: y_center = 200 -->
    <polygon points="75,170 101,185 101,215 75,230 49,215 49,185" stroke="#45475a" stroke-width="0.9" opacity="0.52"/>
    <polygon points="165,170 191,185 191,215 165,230 139,215 139,185" stroke="#45475a" stroke-width="1" opacity="0.58"/>
    <polygon points="255,170 281,185 281,215 255,230 229,215 229,185" stroke="#45475a" stroke-width="1.1" opacity="0.64"/>
    <polygon points="345,170 371,185 371,215 345,230 319,215 319,185" stroke="#585b70" stroke-width="1.2" opacity="0.7"/>
    <polygon points="435,170 461,185 461,215 435,230 409,215 409,185" stroke="#585b70" stroke-width="1.3" opacity="0.76"/>
    <polygon points="525,170 551,185 551,215 525,230 499,215 499,185" stroke="#6c7086" stroke-width="1.4" opacity="0.82" fill="#89b4fa" fill-opacity="0.02"/>
    <polygon points="615,170 641,185 641,215 615,230 589,215 589,185" stroke="#6c7086" stroke-width="1.5" opacity="0.88" fill="#89b4fa" fill-opacity="0.03"/>
    <polygon points="705,170 731,185 731,215 705,230 679,215 679,185" stroke="#7f849c" stroke-width="1.5" opacity="0.92" fill="#89b4fa" fill-opacity="0.04"/>
    <polygon points="795,170 821,185 821,215 795,230 769,215 769,185" stroke="#7f849c" stroke-width="1.5" opacity="0.92" fill="#89b4fa" fill-opacity="0.04"/>
    <polygon points="885,170 911,185 911,215 885,230 859,215 859,185" stroke="#6c7086" stroke-width="1.5" opacity="0.88" fill="#89b4fa" fill-opacity="0.03"/>
    <polygon points="975,170 1001,185 1001,215 975,230 949,215 949,185" stroke="#6c7086" stroke-width="1.4" opacity="0.82" fill="#89b4fa" fill-opacity="0.02"/>
    <polygon points="1065,170 1091,185 1091,215 1065,230 1039,215 1039,185" stroke="#585b70" stroke-width="1.3" opacity="0.76"/>
    <polygon points="1155,170 1181,185 1181,215 1155,230 1129,215 1129,185" stroke="#585b70" stroke-width="1.2" opacity="0.7"/>
    <polygon points="1245,170 1271,185 1271,215 1245,230 1219,215 1219,185" stroke="#45475a" stroke-width="1.1" opacity="0.64"/>
    <polygon points="1335,170 1361,185 1361,215 1335,230 1309,215 1309,185" stroke="#45475a" stroke-width="1" opacity="0.58"/>
    <polygon points="1425,170 1451,185 1451,215 1425,230 1399,215 1399,185" stroke="#45475a" stroke-width="0.9" opacity="0.52"/>

    <!-- Row 4: y_center = 230 (peak brightness) -->
    <polygon points="30,200 56,215 56,245 30,260 4,245 4,215" stroke="#45475a" stroke-width="1" opacity="0.55"/>
    <polygon points="120,200 146,215 146,245 120,260 94,245 94,215" stroke="#45475a" stroke-width="1" opacity="0.6"/>
    <polygon points="210,200 236,215 236,245 210,260 184,245 184,215" stroke="#585b70" stroke-width="1.1" opacity="0.66"/>
    <polygon points="300,200 326,215 326,245 300,260 274,245 274,215" stroke="#585b70" stroke-width="1.2" opacity="0.72"/>
    <polygon points="390,200 416,215 416,245 390,260 364,245 364,215" stroke="#6c7086" stroke-width="1.3" opacity="0.78"/>
    <polygon points="480,200 506,215 506,245 480,260 454,245 454,215" stroke="#6c7086" stroke-width="1.4" opacity="0.84" fill="#89b4fa" fill-opacity="0.02"/>
    <polygon points="570,200 596,215 596,245 570,260 544,245 544,215" stroke="#7f849c" stroke-width="1.5" opacity="0.9" fill="#89b4fa" fill-opacity="0.03"/>
    <polygon points="660,200 686,215 686,245 660,260 634,245 634,215" stroke="#7f849c" stroke-width="1.5" opacity="0.95" fill="#89b4fa" fill-opacity="0.05"/>
    <polygon points="750,200 776,215 776,245 750,260 724,245 724,215" stroke="#89b4fa" stroke-width="1.5" opacity="0.5" fill="#89b4fa" fill-opacity="0.06"/>
    <polygon points="840,200 866,215 866,245 840,260 814,245 814,215" stroke="#7f849c" stroke-width="1.5" opacity="0.95" fill="#89b4fa" fill-opacity="0.05"/>
    <polygon points="930,200 956,215 956,245 930,260 904,245 904,215" stroke="#7f849c" stroke-width="1.5" opacity="0.9" fill="#89b4fa" fill-opacity="0.03"/>
    <polygon points="1020,200 1046,215 1046,245 1020,260 994,245 994,215" stroke="#6c7086" stroke-width="1.4" opacity="0.84" fill="#89b4fa" fill-opacity="0.02"/>
    <polygon points="1110,200 1136,215 1136,245 1110,260 1084,245 1084,215" stroke="#6c7086" stroke-width="1.3" opacity="0.78"/>
    <polygon points="1200,200 1226,215 1226,245 1200,260 1174,245 1174,215" stroke="#585b70" stroke-width="1.2" opacity="0.72"/>
    <polygon points="1290,200 1316,215 1316,245 1290,260 1264,245 1264,215" stroke="#585b70" stroke-width="1.1" opacity="0.66"/>
    <polygon points="1380,200 1406,215 1406,245 1380,260 1354,245 1354,215" stroke="#45475a" stroke-width="1" opacity="0.6"/>
    <polygon points="1470,200 1496,215 1496,245 1470,260 1444,245 1444,215" stroke="#45475a" stroke-width="1" opacity="0.55"/>

    <!-- Row 4.5: y_center = 260 -->
    <polygon points="75,230 101,245 101,275 75,290 49,275 49,245" stroke="#45475a" stroke-width="0.9" opacity="0.52"/>
    <polygon points="165,230 191,245 191,275 165,290 139,275 139,245" stroke="#45475a" stroke-width="1" opacity="0.58"/>
    <polygon points="255,230 281,245 281,275 255,290 229,275 229,245" stroke="#45475a" stroke-width="1.1" opacity="0.64"/>
    <polygon points="345,230 371,245 371,275 345,290 319,275 319,245" stroke="#585b70" stroke-width="1.2" opacity="0.7"/>
    <polygon points="435,230 461,245 461,275 435,290 409,275 409,245" stroke="#585b70" stroke-width="1.3" opacity="0.76"/>
    <polygon points="525,230 551,245 551,275 525,290 499,275 499,245" stroke="#6c7086" stroke-width="1.4" opacity="0.82" fill="#89b4fa" fill-opacity="0.02"/>
    <polygon points="615,230 641,245 641,275 615,290 589,275 589,245" stroke="#6c7086" stroke-width="1.5" opacity="0.88" fill="#89b4fa" fill-opacity="0.03"/>
    <polygon points="705,230 731,245 731,275 705,290 679,275 679,245" stroke="#7f849c" stroke-width="1.5" opacity="0.92" fill="#89b4fa" fill-opacity="0.04"/>
    <polygon points="795,230 821,245 821,275 795,290 769,275 769,245" stroke="#7f849c" stroke-width="1.5" opacity="0.92" fill="#89b4fa" fill-opacity="0.04"/>
    <polygon points="885,230 911,245 911,275 885,290 859,275 859,245" stroke="#6c7086" stroke-width="1.5" opacity="0.88" fill="#89b4fa" fill-opacity="0.03"/>
    <polygon points="975,230 1001,245 1001,275 975,290 949,275 949,245" stroke="#6c7086" stroke-width="1.4" opacity="0.82" fill="#89b4fa" fill-opacity="0.02"/>
    <polygon points="1065,230 1091,245 1091,275 1065,290 1039,275 1039,245" stroke="#585b70" stroke-width="1.3" opacity="0.76"/>
    <polygon points="1155,230 1181,245 1181,275 1155,290 1129,275 1129,245" stroke="#585b70" stroke-width="1.2" opacity="0.7"/>
    <polygon points="1245,230 1271,245 1271,275 1245,290 1219,275 1219,245" stroke="#45475a" stroke-width="1.1" opacity="0.64"/>
    <polygon points="1335,230 1361,245 1361,275 1335,290 1309,275 1309,245" stroke="#45475a" stroke-width="1" opacity="0.58"/>
    <polygon points="1425,230 1451,245 1451,275 1425,290 1399,275 1399,245" stroke="#45475a" stroke-width="0.9" opacity="0.52"/>

    <!-- Row 5: y_center = 290 -->
    <polygon points="30,260 56,275 56,305 30,320 4,305 4,275" stroke="#313244" stroke-width="0.8" opacity="0.46"/>
    <polygon points="120,260 146,275 146,305 120,320 94,305 94,275" stroke="#45475a" stroke-width="0.9" opacity="0.52"/>
    <polygon points="210,260 236,275 236,305 210,320 184,305 184,275" stroke="#45475a" stroke-width="1" opacity="0.58"/>
    <polygon points="300,260 326,275 326,305 300,320 274,305 274,275" stroke="#45475a" stroke-width="1.1" opacity="0.64"/>
    <polygon points="390,260 416,275 416,305 390,320 364,305 364,275" stroke="#585b70" stroke-width="1.2" opacity="0.7"/>
    <polygon points="480,260 506,275 506,305 480,320 454,305 454,275" stroke="#585b70" stroke-width="1.2" opacity="0.74"/>
    <polygon points="570,260 596,275 596,305 570,320 544,305 544,275" stroke="#585b70" stroke-width="1.3" opacity="0.8"/>
    <polygon points="660,260 686,275 686,305 660,320 634,305 634,275" stroke="#6c7086" stroke-width="1.4" opacity="0.85" fill="#89b4fa" fill-opacity="0.02"/>
    <polygon points="750,260 776,275 776,305 750,320 724,305 724,275" stroke="#6c7086" stroke-width="1.5" opacity="0.9" fill="#89b4fa" fill-opacity="0.03"/>
    <polygon points="840,260 866,275 866,305 840,320 814,305 814,275" stroke="#6c7086" stroke-width="1.4" opacity="0.85" fill="#89b4fa" fill-opacity="0.02"/>
    <polygon points="930,260 956,275 956,305 930,320 904,305 904,275" stroke="#585b70" stroke-width="1.3" opacity="0.8"/>
    <polygon points="1020,260 1046,275 1046,305 1020,320 994,305 994,275" stroke="#585b70" stroke-width="1.2" opacity="0.74"/>
    <polygon points="1110,260 1136,275 1136,305 1110,320 1084,305 1084,275" stroke="#585b70" stroke-width="1.2" opacity="0.7"/>
    <polygon points="1200,260 1226,275 1226,305 1200,320 1174,305 1174,275" stroke="#45475a" stroke-width="1.1" opacity="0.64"/>
    <polygon points="1290,260 1316,275 1316,305 1290,320 1264,305 1264,275" stroke="#45475a" stroke-width="1" opacity="0.58"/>
    <polygon points="1380,260 1406,275 1406,305 1380,320 1354,305 1354,275" stroke="#45475a" stroke-width="0.9" opacity="0.52"/>
    <polygon points="1470,260 1496,275 1496,305 1470,320 1444,305 1444,275" stroke="#313244" stroke-width="0.8" opacity="0.46"/>

    <!-- Row 5.5: y_center = 320 -->
    <polygon points="75,290 101,305 101,335 75,350 49,335 49,305" stroke="#313244" stroke-width="0.7" opacity="0.4"/>
    <polygon points="165,290 191,305 191,335 165,350 139,335 139,305" stroke="#313244" stroke-width="0.8" opacity="0.46"/>
    <polygon points="255,290 281,305 281,335 255,350 229,335 229,305" stroke="#45475a" stroke-width="0.9" opacity="0.52"/>
    <polygon points="345,290 371,305 371,335 345,350 319,335 319,305" stroke="#45475a" stroke-width="1" opacity="0.58"/>
    <polygon points="435,290 461,305 461,335 435,350 409,335 409,305" stroke="#45475a" stroke-width="1.1" opacity="0.62"/>
    <polygon points="525,290 551,305 551,335 525,350 499,335 499,305" stroke="#45475a" stroke-width="1.1" opacity="0.68"/>
    <polygon points="615,290 641,305 641,335 615,350 589,335 589,305" stroke="#585b70" stroke-width="1.2" opacity="0.72"/>
    <polygon points="705,290 731,305 731,335 705,350 679,335 679,305" stroke="#585b70" stroke-width="1.3" opacity="0.78"/>
    <polygon points="795,290 821,305 821,335 795,350 769,335 769,305" stroke="#585b70" stroke-width="1.3" opacity="0.78"/>
    <polygon points="885,290 911,305 911,335 885,350 859,335 859,305" stroke="#585b70" stroke-width="1.2" opacity="0.72"/>
    <polygon points="975,290 1001,305 1001,335 975,350 949,335 949,305" stroke="#45475a" stroke-width="1.1" opacity="0.68"/>
    <polygon points="1065,290 1091,305 1091,335 1065,350 1039,335 1039,305" stroke="#45475a" stroke-width="1.1" opacity="0.62"/>
    <polygon points="1155,290 1181,305 1181,335 1155,350 1129,335 1129,305" stroke="#45475a" stroke-width="1" opacity="0.58"/>
    <polygon points="1245,290 1271,305 1271,335 1245,350 1219,335 1219,305" stroke="#45475a" stroke-width="0.9" opacity="0.52"/>
    <polygon points="1335,290 1361,305 1361,335 1335,350 1309,335 1309,305" stroke="#313244" stroke-width="0.8" opacity="0.46"/>
    <polygon points="1425,290 1451,305 1451,335 1425,350 1399,335 1399,305" stroke="#313244" stroke-width="0.7" opacity="0.4"/>

    <!-- Row 6: y_center = 350 -->
    <polygon points="30,320 56,335 56,365 30,380 4,365 4,335" stroke="#313244" stroke-width="0.6" opacity="0.32"/>
    <polygon points="120,320 146,335 146,365 120,380 94,365 94,335" stroke="#313244" stroke-width="0.7" opacity="0.38"/>
    <polygon points="210,320 236,335 236,365 210,380 184,365 184,335" stroke="#313244" stroke-width="0.8" opacity="0.44"/>
    <polygon points="300,320 326,335 326,365 300,380 274,365 274,335" stroke="#313244" stroke-width="0.8" opacity="0.48"/>
    <polygon points="390,320 416,335 416,365 390,380 364,365 364,335" stroke="#45475a" stroke-width="0.9" opacity="0.52"/>
    <polygon points="480,320 506,335 506,365 480,380 454,365 454,335" stroke="#45475a" stroke-width="1" opacity="0.58"/>
    <polygon points="570,320 596,335 596,365 570,380 544,365 544,335" stroke="#45475a" stroke-width="1" opacity="0.62"/>
    <polygon points="660,320 686,335 686,365 660,380 634,365 634,335" stroke="#45475a" stroke-width="1.1" opacity="0.68"/>
    <polygon points="750,320 776,335 776,365 750,380 724,365 724,335" stroke="#585b70" stroke-width="1.2" opacity="0.72"/>
    <polygon points="840,320 866,335 866,365 840,380 814,365 814,335" stroke="#45475a" stroke-width="1.1" opacity="0.68"/>
    <polygon points="930,320 956,335 956,365 930,380 904,365 904,335" stroke="#45475a" stroke-width="1" opacity="0.62"/>
    <polygon points="1020,320 1046,335 1046,365 1020,380 994,365 994,335" stroke="#45475a" stroke-width="1" opacity="0.58"/>
    <polygon points="1110,320 1136,335 1136,365 1110,380 1084,365 1084,335" stroke="#45475a" stroke-width="0.9" opacity="0.52"/>
    <polygon points="1200,320 1226,335 1226,365 1200,380 1174,365 1174,335" stroke="#313244" stroke-width="0.8" opacity="0.48"/>
    <polygon points="1290,320 1316,335 1316,365 1290,380 1264,365 1264,335" stroke="#313244" stroke-width="0.8" opacity="0.44"/>
    <polygon points="1380,320 1406,335 1406,365 1380,380 1354,365 1354,335" stroke="#313244" stroke-width="0.7" opacity="0.38"/>
    <polygon points="1470,320 1496,335 1496,365 1470,380 1444,365 1444,335" stroke="#313244" stroke-width="0.6" opacity="0.32"/>

    <!-- Row 6.5: y_center = 380 -->
    <polygon points="75,350 101,365 101,395 75,410 49,395 49,365" stroke="#313244" stroke-width="0.5" opacity="0.28"/>
    <polygon points="165,350 191,365 191,395 165,410 139,395 139,365" stroke="#313244" stroke-width="0.6" opacity="0.32"/>
    <polygon points="255,350 281,365 281,395 255,410 229,395 229,365" stroke="#313244" stroke-width="0.7" opacity="0.38"/>
    <polygon points="345,350 371,365 371,395 345,410 319,395 319,365" stroke="#313244" stroke-width="0.7" opacity="0.42"/>
    <polygon points="435,350 461,365 461,395 435,410 409,395 409,365" stroke="#313244" stroke-width="0.8" opacity="0.46"/>
    <polygon points="525,350 551,365 551,395 525,410 499,395 499,365" stroke="#313244" stroke-width="0.8" opacity="0.5"/>
    <polygon points="615,350 641,365 641,395 615,410 589,395 589,365" stroke="#45475a" stroke-width="0.9" opacity="0.55"/>
    <polygon points="705,350 731,365 731,395 705,410 679,395 679,365" stroke="#45475a" stroke-width="1" opacity="0.6"/>
    <polygon points="795,350 821,365 821,395 795,410 769,395 769,365" stroke="#45475a" stroke-width="1" opacity="0.6"/>
    <polygon points="885,350 911,365 911,395 885,410 859,395 859,365" stroke="#45475a" stroke-width="0.9" opacity="0.55"/>
    <polygon points="975,350 1001,365 1001,395 975,410 949,395 949,365" stroke="#313244" stroke-width="0.8" opacity="0.5"/>
    <polygon points="1065,350 1091,365 1091,395 1065,410 1039,395 1039,365" stroke="#313244" stroke-width="0.8" opacity="0.46"/>
    <polygon points="1155,350 1181,365 1181,395 1155,410 1129,395 1129,365" stroke="#313244" stroke-width="0.7" opacity="0.42"/>
    <polygon points="1245,350 1271,365 1271,395 1245,410 1219,395 1219,365" stroke="#313244" stroke-width="0.7" opacity="0.38"/>
    <polygon points="1335,350 1361,365 1361,395 1335,410 1309,395 1309,365" stroke="#313244" stroke-width="0.6" opacity="0.32"/>
    <polygon points="1425,350 1451,365 1451,395 1425,410 1399,395 1399,365" stroke="#313244" stroke-width="0.5" opacity="0.28"/>

    <!-- Row 7: y_center = 410 -->
    <polygon points="30,380 56,395 56,425 30,440 4,425 4,395" stroke="#313244" stroke-width="0.5" opacity="0.22"/>
    <polygon points="120,380 146,395 146,425 120,440 94,425 94,395" stroke="#313244" stroke-width="0.5" opacity="0.26"/>
    <polygon points="210,380 236,395 236,425 210,440 184,425 184,395" stroke="#313244" stroke-width="0.6" opacity="0.3"/>
    <polygon points="300,380 326,395 326,425 300,440 274,425 274,395" stroke="#313244" stroke-width="0.6" opacity="0.34"/>
    <polygon points="390,380 416,395 416,425 390,440 364,425 364,395" stroke="#313244" stroke-width="0.7" opacity="0.38"/>
    <polygon points="480,380 506,395 506,425 480,440 454,425 454,395" stroke="#313244" stroke-width="0.7" opacity="0.4"/>
    <polygon points="570,380 596,395 596,425 570,440 544,425 544,395" stroke="#313244" stroke-width="0.8" opacity="0.44"/>
    <polygon points="660,380 686,395 686,425 660,440 634,425 634,395" stroke="#313244" stroke-width="0.8" opacity="0.48"/>
    <polygon points="750,380 776,395 776,425 750,440 724,425 724,395" stroke="#45475a" stroke-width="0.9" opacity="0.5"/>
    <polygon points="840,380 866,395 866,425 840,440 814,425 814,395" stroke="#313244" stroke-width="0.8" opacity="0.48"/>
    <polygon points="930,380 956,395 956,425 930,440 904,425 904,395" stroke="#313244" stroke-width="0.8" opacity="0.44"/>
    <polygon points="1020,380 1046,395 1046,425 1020,440 994,425 994,395" stroke="#313244" stroke-width="0.7" opacity="0.4"/>
    <polygon points="1110,380 1136,395 1136,425 1110,440 1084,425 1084,395" stroke="#313244" stroke-width="0.7" opacity="0.38"/>
    <polygon points="1200,380 1226,395 1226,425 1200,440 1174,425 1174,395" stroke="#313244" stroke-width="0.6" opacity="0.34"/>
    <polygon points="1290,380 1316,395 1316,425 1290,440 1264,425 1264,395" stroke="#313244" stroke-width="0.6" opacity="0.3"/>
    <polygon points="1380,380 1406,395 1406,425 1380,440 1354,425 1354,395" stroke="#313244" stroke-width="0.5" opacity="0.26"/>
    <polygon points="1470,380 1496,395 1496,425 1470,440 1444,425 1444,395" stroke="#313244" stroke-width="0.5" opacity="0.22"/>

    <!-- Row 7.5: y_center = 440 -->
    <polygon points="75,410 101,425 101,455 75,470 49,455 49,425" stroke="#313244" stroke-width="0.4" opacity="0.18"/>
    <polygon points="165,410 191,425 191,455 165,470 139,455 139,425" stroke="#313244" stroke-width="0.5" opacity="0.22"/>
    <polygon points="255,410 281,425 281,455 255,470 229,455 229,425" stroke="#313244" stroke-width="0.5" opacity="0.25"/>
    <polygon points="345,410 371,425 371,455 345,470 319,455 319,425" stroke="#313244" stroke-width="0.5" opacity="0.28"/>
    <polygon points="435,410 461,425 461,455 435,470 409,455 409,425" stroke="#313244" stroke-width="0.6" opacity="0.3"/>
    <polygon points="525,410 551,425 551,455 525,470 499,455 499,425" stroke="#313244" stroke-width="0.6" opacity="0.32"/>
    <polygon points="615,410 641,425 641,455 615,470 589,455 589,425" stroke="#313244" stroke-width="0.6" opacity="0.35"/>
    <polygon points="705,410 731,425 731,455 705,470 679,455 679,425" stroke="#313244" stroke-width="0.7" opacity="0.38"/>
    <polygon points="795,410 821,425 821,455 795,470 769,455 769,425" stroke="#313244" stroke-width="0.7" opacity="0.38"/>
    <polygon points="885,410 911,425 911,455 885,470 859,455 859,425" stroke="#313244" stroke-width="0.6" opacity="0.35"/>
    <polygon points="975,410 1001,425 1001,455 975,470 949,455 949,425" stroke="#313244" stroke-width="0.6" opacity="0.32"/>
    <polygon points="1065,410 1091,425 1091,455 1065,470 1039,455 1039,425" stroke="#313244" stroke-width="0.6" opacity="0.3"/>
    <polygon points="1155,410 1181,425 1181,455 1155,470 1129,455 1129,425" stroke="#313244" stroke-width="0.5" opacity="0.28"/>
    <polygon points="1245,410 1271,425 1271,455 1245,470 1219,455 1219,425" stroke="#313244" stroke-width="0.5" opacity="0.25"/>
    <polygon points="1335,410 1361,425 1361,455 1335,470 1309,455 1309,425" stroke="#313244" stroke-width="0.5" opacity="0.22"/>
    <polygon points="1425,410 1451,425 1451,455 1425,470 1399,455 1399,425" stroke="#313244" stroke-width="0.4" opacity="0.18"/>

    <!-- Row 8: y_center = 470 -->
    <polygon points="30,440 56,455 56,485 30,500 4,485 4,455" stroke="#313244" stroke-width="0.4" opacity="0.15"/>
    <polygon points="120,440 146,455 146,485 120,500 94,485 94,455" stroke="#313244" stroke-width="0.4" opacity="0.18"/>
    <polygon points="210,440 236,455 236,485 210,500 184,485 184,455" stroke="#313244" stroke-width="0.4" opacity="0.2"/>
    <polygon points="300,440 326,455 326,485 300,500 274,485 274,455" stroke="#313244" stroke-width="0.5" opacity="0.22"/>
    <polygon points="390,440 416,455 416,485 390,500 364,485 364,455" stroke="#313244" stroke-width="0.5" opacity="0.24"/>
    <polygon points="480,440 506,455 506,485 480,500 454,485 454,455" stroke="#313244" stroke-width="0.5" opacity="0.26"/>
    <polygon points="570,440 596,455 596,485 570,500 544,485 544,455" stroke="#313244" stroke-width="0.5" opacity="0.28"/>
    <polygon points="660,440 686,455 686,485 660,500 634,485 634,455" stroke="#313244" stroke-width="0.6" opacity="0.3"/>
    <polygon points="750,440 776,455 776,485 750,500 724,485 724,455" stroke="#313244" stroke-width="0.6" opacity="0.32"/>
    <polygon points="840,440 866,455 866,485 840,500 814,485 814,455" stroke="#313244" stroke-width="0.6" opacity="0.3"/>
    <polygon points="930,440 956,455 956,485 930,500 904,485 904,455" stroke="#313244" stroke-width="0.5" opacity="0.28"/>
    <polygon points="1020,440 1046,455 1046,485 1020,500 994,485 994,455" stroke="#313244" stroke-width="0.5" opacity="0.26"/>
    <polygon points="1110,440 1136,455 1136,485 1110,500 1084,485 1084,455" stroke="#313244" stroke-width="0.5" opacity="0.24"/>
    <polygon points="1200,440 1226,455 1226,485 1200,500 1174,485 1174,455" stroke="#313244" stroke-width="0.5" opacity="0.22"/>
    <polygon points="1290,440 1316,455 1316,485 1290,500 1264,485 1264,455" stroke="#313244" stroke-width="0.4" opacity="0.2"/>
    <polygon points="1380,440 1406,455 1406,485 1380,500 1354,485 1354,455" stroke="#313244" stroke-width="0.4" opacity="0.18"/>
    <polygon points="1470,440 1496,455 1496,485 1470,500 1444,485 1444,455" stroke="#313244" stroke-width="0.4" opacity="0.15"/>
  </g>

  <rect width="1500" height="500" fill="url(#glow)"/>
</svg>